# xmcd
#
# Track frame offsets:
#	150
#	16367
#	32397
#	46162
#	65502
#	79124
#	92003
#	113369
#	130785
#	146593
#	164265
#	180874
#	196860
#	213293
#	226537
#	244845
#	263021
#	277543
#
# Disc length: 3900 seconds
#
# Revision: 0
# Processed by: cddbd v1.4PL0 Copyright (c) Steve Scherf et al.
# Submitted via: audiograbber 1.80.04
#
DISCID=d10f3a12
DTITLE=Mujeres que aman - Mujeres que aman
DYEAR=2001
DGENRE=Pop
TTITLE0=Sangre -Thalia
TTITLE1=Cuidado con el corazón -Alejandra Guzmán
TTITLE2=Rueda mi mente -Sasha
TTITLE3=Mi buen corazón -Amanda Miguel
TTITLE4=Como yo te amé -Eugenia León
TTITLE5=Dime -Aranza
TTITLE6=Aprendiz -Guadalupe D`alessio
TTITLE7=Luna de miel -Paloma San Basilio
TTITLE8=De mí enamorate -Daniela Romo
TTITLE9=Cuando baja la marea -Yuri
TTITLE10=¿A quién? -Karina
TTITLE11=Sabor a miel -Paulina Rubio
TTITLE12=Y es que llegaste tú -María Conchita Alonso
TTITLE13=Simple -Yatana
TTITLE14=Electricidad -Lucero
TTITLE15=Cómo te va mi amor -Pandora
TTITLE16=Somos sólo uno -Thaís
TTITLE17=Somos sólo uno -Thaís
EXTD=
EXTT0=
EXTT1=
EXTT2=
EXTT3=
EXTT4=
EXTT5=
EXTT6=
EXTT7=
EXTT8=
EXTT9=
EXTT10=
EXTT11=
EXTT12=
EXTT13=
EXTT14=
EXTT15=
EXTT16=
EXTT17=
PLAYORDER=
